<svg id="Layer_1" enable-background="new 0 0 100 100" viewBox="0 0 100 100" xmlns="http://www.w3.org/2000/svg"><g fill="#ffc100"><path d="m50 97.5c-3.8779793-24.2111893-20.3623466-43.2851219-41.1408091-47.491806 20.7784625-4.2085038 37.2628298-23.287901 41.1408091-47.508194 3.8779793 24.220293 20.3623428 43.2996902 41.1408081 47.508194-20.7784653 4.2066841-37.2628288 23.2806167-41.1408081 47.491806z"/><path d="m82.1522598 29.9764328c-.9902039-6.182106-5.1993408-11.0524616-10.5049286-12.1266003 5.3055878-1.074604 9.5147247-5.9463549 10.5049286-12.1307869.9902115 6.1844316 5.1993408 11.0561829 10.5049362 12.1307869-5.3055954 1.0741387-9.5147247 5.9444943-10.5049362 12.1266003z"/><path d="m17.8477383 94.2809525c-.9902058-6.182106-5.1993399-11.0524597-10.5049314-12.1266022 5.3055916-1.0746002 9.5147257-5.9463501 10.5049314-12.1307831.9902077 6.184433 5.1993408 11.0561829 10.5049324 12.1307831-5.3055916 1.0741424-9.5147248 5.9444961-10.5049324 12.1266022z"/></g></svg>